<svg width="240" height="240" viewBox="0 0 240 240" fill="none" xmlns="http://www.w3.org/2000/svg">
<rect width="240" height="240" rx="47" fill="#330000"/>
<path d="M112.71 144.1H75.5096L67.9096 167.6C67.7096 168.5 66.9096 169.1 66.0096 169H47.2096C46.1096 169 45.8096 168.4 46.1096 167.2L78.3096 74.5C78.6096 73.5 78.9096 72.4 79.3096 71.2C79.7096 69.1 79.9095 66.9 79.9095 64.7C79.8095 64.2 80.2096 63.7 80.7096 63.6H106.61C107.41 63.6 107.81 63.9 107.91 64.4L144.41 167.4C144.71 168.5 144.41 169 143.41 169H122.51C121.81 169.1 121.11 168.6 120.91 167.9L112.71 144.1ZM81.3096 123.8H106.71C106.11 121.7 105.31 119.2 104.41 116.6C103.51 113.9 102.61 111 101.71 108C100.71 104.9 99.8096 101.9 98.8096 98.8C97.8096 95.7 96.9096 92.8 96.1096 89.9C95.3096 87.1 94.6095 84.5 93.9095 82.1H93.7096C92.8096 86.4 91.7096 90.7 90.3096 95C88.8096 99.8 87.3096 104.8 85.7096 109.8C84.3096 114.9 82.8096 119.6 81.3096 123.8ZM166.71 81.1C163.41 81.2 160.21 79.9 157.81 77.6C155.51 75.1 154.31 71.8 154.41 68.4C154.31 65 155.61 61.8 158.01 59.5C160.41 57.2 163.61 56 166.91 56C170.81 56 173.81 57.2 176.01 59.5C178.21 61.9 179.41 65.1 179.31 68.4C179.41 71.8 178.21 75.1 175.81 77.6C173.51 80 170.11 81.3 166.71 81.1ZM155.51 167.9V90.9C155.51 89.9 155.91 89.5 156.81 89.5H176.61C177.51 89.5 177.91 90 177.91 90.9V167.9C177.91 169 177.51 169.5 176.61 169.5H157.01C156.01 169.5 155.51 168.9 155.51 167.9Z" fill="#FF9A00"/>
</svg>
