<svg width="1072" height="1071" viewBox="0 0 1072 1071" fill="none" xmlns="http://www.w3.org/2000/svg">
<g clip-path="url(#clip0_30_3320)">
<path d="M232.623 0.0771179H839.176C967.138 0.0771179 1071.03 103.967 1071.03 231.929V838.482C1071.03 966.444 967.138 1070.33 839.176 1070.33H232.623C104.661 1070.33 0.771118 966.444 0.771118 838.482V231.929C0.771118 103.967 104.661 0.0771179 232.623 0.0771179Z" fill="#FFD02F"/>
<path d="M744.472 133.741H626.962L724.834 305.729L509.452 133.741H391.942L499.633 344.054L274.433 133.741H156.923L274.433 401.384L156.923 936.671H274.433L499.633 363.059L391.942 936.671H509.452L724.834 325.05L626.962 936.671H744.472L959.853 267.404L744.472 133.741Z" fill="#050038"/>
</g>
<defs>
<clipPath id="clip0_30_3320">
<rect width="1072" height="1071" fill="white"/>
</clipPath>
</defs>
</svg>
