<svg width="230" height="242" viewBox="0 0 230 242" fill="none" xmlns="http://www.w3.org/2000/svg">
<path d="M14.4408 11.3511L147.24 1.54233C163.553 0.143133 167.743 1.08633 178.001 8.54313L220.392 38.4063C227.383 43.5423 229.711 44.9415 229.711 50.5335V214.317C229.711 224.582 225.984 230.654 212.935 231.58L58.7208 240.921C48.9288 241.384 44.2656 239.985 39.1368 233.45L7.92 192.856C2.3208 185.385 0 179.793 0 173.255V27.6711C0 19.2783 3.7272 12.2799 14.4408 11.3511Z" fill="white"/>
<path fill-rule="evenodd" clip-rule="evenodd" d="M147.24 1.54522L14.4408 11.354C3.7272 12.2804 0 19.2812 0 27.6716V173.256C0 179.791 2.3208 185.383 7.92 192.856L39.1368 233.448C44.2656 239.983 48.9288 241.384 58.7208 240.919L212.938 231.583C225.977 230.654 229.714 224.582 229.714 214.32V50.5364C229.714 45.2324 227.618 43.7036 221.45 39.1772L178.001 8.54362C167.746 1.08682 163.553 0.143621 147.24 1.54282V1.54522ZM62.208 47.8556C49.6152 48.7028 46.7592 48.8948 39.6072 43.0796L21.4248 28.6172C19.5768 26.7452 20.5056 24.41 25.1616 23.9444L152.825 14.6156C163.546 13.6796 169.128 17.4164 173.321 20.6804L195.216 36.5444C196.152 37.0172 198.48 39.8084 195.679 39.8084L63.84 47.7452L62.208 47.8556ZM47.5272 212.92V73.8812C47.5272 67.8092 49.392 65.0084 54.9744 64.538L206.4 55.6724C211.536 55.2092 213.857 58.4732 213.857 64.5356V202.648C213.857 208.72 212.921 213.856 204.538 214.32L59.6328 222.72C51.2496 223.183 47.5296 220.392 47.5296 212.92H47.5272ZM190.567 81.3356C191.496 85.5356 190.567 89.7356 186.367 90.2156L179.383 91.6004V194.256C173.318 197.52 167.736 199.384 163.07 199.384C155.614 199.384 153.751 197.049 148.166 190.056L102.494 118.2V187.72L116.942 190.992C116.942 190.992 116.942 199.392 105.286 199.392L73.1496 201.256C72.2136 199.384 73.1496 194.721 76.4064 193.792L84.7992 191.464V99.5444L73.152 98.6012C72.216 94.4012 74.544 88.3364 81.072 87.866L115.553 85.5452L163.073 158.33V93.938L150.96 92.546C150.024 87.4028 153.751 83.666 158.407 83.21L190.567 81.3356Z" fill="black"/>
</svg>
