<svg width="240" height="240" viewBox="0 0 240 240" fill="none" xmlns="http://www.w3.org/2000/svg">
<rect width="240" height="240" rx="47" fill="#001E36"/>
<path d="M52 164.6V61.7C52 61 52.3 60.6 53 60.6C54.7 60.6 56.3 60.6 58.6 60.5C61 60.4 63.5 60.4 66.2 60.3C68.9 60.2 71.8 60.2 74.9 60.1C78 60 81 60 84 60C92.2 60 99 61 104.6 63.1C109.6 64.8 114.2 67.6 118 71.3C121.2 74.5 123.7 78.4 125.3 82.7C126.8 86.9 127.6 91.2 127.6 95.7C127.6 104.3 125.6 111.4 121.6 117C117.6 122.6 112 126.8 105.5 129.2C98.7 131.7 91.2 132.6 83 132.6C80.6 132.6 79 132.6 78 132.5C77 132.4 75.6 132.4 73.7 132.4V164.5C73.8 165.2 73.3 165.8 72.6 165.9C72.5 165.9 72.4 165.9 72.2 165.9H53.2C52.4 165.9 52 165.5 52 164.6ZM73.8 79.9V113.5C75.2 113.6 76.5 113.7 77.7 113.7H83C86.9 113.7 90.8 113.1 94.5 111.9C97.7 111 100.5 109.1 102.7 106.6C104.8 104.1 105.8 100.7 105.8 96.3C105.9 93.2 105.1 90.1 103.5 87.4C101.8 84.8 99.4 82.8 96.5 81.7C92.8 80.2 88.8 79.6 84.7 79.7C82.1 79.7 79.8 79.7 77.9 79.8C75.9 79.7 74.5 79.8 73.8 79.9Z" fill="#31A8FF"/>
<path d="M190 107.4C187 105.8 183.8 104.7 180.4 104C176.7 103.2 173 102.7 169.2 102.7C167.2 102.6 165.1 102.9 163.2 103.4C161.9 103.7 160.8 104.4 160.1 105.4C159.6 106.2 159.3 107.2 159.3 108.1C159.3 109 159.7 109.9 160.3 110.7C161.2 111.8 162.4 112.7 163.7 113.4C166 114.6 168.4 115.7 170.8 116.7C176.2 118.5 181.4 121 186.2 124C189.5 126.1 192.2 128.9 194.1 132.3C195.7 135.5 196.5 139 196.4 142.6C196.5 147.3 195.1 152 192.5 155.9C189.7 159.9 185.8 163 181.3 164.8C176.4 166.9 170.4 168 163.2 168C158.6 168 154.1 167.6 149.6 166.7C146.1 166.1 142.6 165 139.4 163.5C138.7 163.1 138.2 162.4 138.3 161.6V144.2C138.3 143.9 138.4 143.5 138.7 143.3C139 143.1 139.3 143.2 139.6 143.4C143.5 145.7 147.6 147.3 152 148.3C155.8 149.3 159.8 149.8 163.8 149.8C167.6 149.8 170.3 149.3 172.1 148.4C173.7 147.7 174.8 146 174.8 144.2C174.8 142.8 174 141.5 172.4 140.2C170.8 138.9 167.5 137.4 162.6 135.5C157.5 133.7 152.8 131.3 148.4 128.3C145.3 126.1 142.7 123.2 140.8 119.8C139.2 116.6 138.4 113.1 138.5 109.6C138.5 105.3 139.7 101.2 141.9 97.4998C144.4 93.4998 148.1 90.2998 152.4 88.2998C157.1 85.8998 163 84.7998 170.1 84.7998C174.2 84.7998 178.4 85.0998 182.5 85.6998C185.5 86.0998 188.4 86.8998 191.1 87.9998C191.5 88.0998 191.9 88.4998 192.1 88.8998C192.2 89.2998 192.3 89.6998 192.3 90.0998V106.4C192.3 106.8 192.1 107.2 191.8 107.4C190.9 107.6 190.4 107.6 190 107.4Z" fill="#31A8FF"/>
</svg>
