<svg width="125" height="31" viewBox="0 0 125 31" fill="none" xmlns="http://www.w3.org/2000/svg">
<path d="M18.987 11.371H13.357C13.107 9.589 12.168 8.4 10.323 8.4C9.04096 8.4 8.16496 9.025 8.16496 10.339C8.16496 11.716 9.16596 12.56 12.731 13.404C17.485 14.53 19.425 16.906 19.425 20.224C19.425 24.54 15.297 26.729 10.948 26.729C5.47396 26.729 1.78296 24.54 1.43896 19.692H7.06896C7.44496 21.725 9.10297 22.6 10.791 22.6C12.355 22.6 13.543 21.787 13.543 20.598C13.543 19.473 12.73 18.504 10.071 17.847C5.16096 16.626 2.28296 15.094 2.28296 10.778C2.28296 6.617 6.16196 4.271 10.447 4.271C16.141 4.271 18.518 7.367 18.987 11.371Z" fill="#2B2B2B"/>
<path d="M39.946 11.716C39.946 15.969 37.099 18.19 33.971 18.566C32.814 18.691 31.938 18.722 30.592 18.722H28.09V26.292H22.46V4.70898H30.593C31.939 4.70898 32.815 4.73998 33.972 4.86498C37.1 5.24098 39.946 7.46198 39.946 11.716ZM34.065 11.716C34.065 10.089 33.221 9.24498 31.782 9.11998C31.375 9.08798 30.875 9.08798 30.281 9.08798H28.091V14.343H30.281C30.875 14.343 31.375 14.343 31.782 14.311C33.221 14.187 34.065 13.342 34.065 11.716Z" fill="#2B2B2B"/>
<path d="M46.0461 20.693L44.2311 26.292H38.2571L46.0461 4.70898H52.9271L60.7151 26.292H54.5851L52.7701 20.693H46.0461ZM47.4221 16.313H51.4261L49.4241 9.68198L47.4221 16.313Z" fill="#2B2B2B"/>
<path d="M81.206 26.292H75.075C74.575 24.76 74.262 23.508 74.074 21.976C73.793 19.598 72.854 18.223 71.415 18.128C70.79 18.097 70.258 18.097 69.633 18.097H68.382V26.292H62.75V4.70898H71.321C72.666 4.70898 73.542 4.73998 74.7 4.86498C77.827 5.24098 80.549 6.77298 80.549 10.589C80.549 13.31 79.079 15.125 76.201 15.969C78.453 16.783 79.266 18.44 79.58 21.037C79.861 23.477 80.361 25.009 81.206 26.292ZM70.414 14.03C71.008 14.03 71.509 14.03 71.916 13.999C73.354 13.874 74.668 13.373 74.668 11.559C74.668 9.74498 73.511 9.24498 72.072 9.11998C71.665 9.08798 71.165 9.08798 70.571 9.08798H68.381V14.03H70.414Z" fill="#2B2B2B"/>
<path d="M100.194 11.371H94.564C94.313 9.589 93.375 8.4 91.529 8.4C90.247 8.4 89.371 9.025 89.371 10.339C89.371 11.716 90.372 12.56 93.937 13.404C98.691 14.53 100.631 16.906 100.631 20.224C100.631 24.54 96.503 26.729 92.154 26.729C86.68 26.729 82.989 24.54 82.645 19.692H88.275C88.651 21.725 90.309 22.6 91.997 22.6C93.561 22.6 94.749 21.787 94.749 20.598C94.749 19.473 93.936 18.504 91.277 17.847C86.367 16.626 83.489 15.094 83.489 10.778C83.489 6.617 87.368 4.271 91.653 4.271C97.347 4.271 99.725 7.367 100.194 11.371Z" fill="#2B2B2B"/>
<path d="M123.561 26.292H117.931V17.909H109.297V26.292H103.667V4.70898H109.297V13.53H117.931V4.70898H123.561V26.292Z" fill="#2B2B2B"/>
<path d="M51.1241 18.185C52.4661 17.622 55.3951 16.158 55.5481 14.435C55.7001 12.654 50.9071 12.894 48.0251 15.812C47.7911 16.046 47.4041 16.45 47.2051 16.72H47.4751C48.2021 16.732 48.7171 17.054 48.8751 17.704C49.5841 16.761 50.2051 15.835 50.9551 14.933C51.2251 14.605 51.8051 15.033 51.5351 15.361C50.8031 16.245 50.0821 17.148 49.3851 18.068C49.2151 18.297 49.0391 18.531 48.8691 18.765C48.6581 19.492 48.0551 20.681 47.5681 21.15C47.1521 21.56 46.7131 21.507 46.8121 21.015C46.9881 20.195 48.2531 18.572 48.2711 18.519C48.2771 18.484 48.2831 18.443 48.2831 18.408C48.3471 17.711 48.0601 17.406 47.4161 17.394C47.1291 17.394 46.7541 17.447 46.5611 17.23C46.2331 16.855 46.7601 16.263 47.0241 15.959C47.2121 15.748 47.4111 15.543 47.6101 15.338C48.8581 14.078 50.5101 13.199 52.1451 12.824C52.9071 12.648 53.7451 12.56 54.5001 12.695C55.3961 12.847 56.2751 13.357 56.1821 14.447C56.0301 16.216 53.8681 17.587 52.3211 18.355C53.0891 18.689 53.4521 19.48 53.1121 20.365L57.1671 19.662C57.5241 19.463 57.7881 20.06 57.4311 20.26L52.6791 21.11C51.7061 22.37 49.9081 23.073 48.4781 23.214C48.1381 23.249 47.7281 23.261 47.4001 23.161C47.0601 23.061 46.7911 22.768 46.9961 22.352C47.3421 21.655 49.0471 21.139 49.6911 20.975C50.5641 20.746 51.4721 20.606 52.3571 20.477C52.8841 19.651 52.5151 19.036 51.7121 18.889C51.5481 18.86 51.3841 18.854 51.2141 18.86C51.0911 18.913 50.9621 18.96 50.8391 19.012C50.4991 19.141 49.7321 19.428 49.3801 19.463C48.9351 19.51 48.8531 19.082 49.1221 18.842C49.2101 18.766 49.3331 18.707 49.4381 18.66C49.9761 18.413 50.5501 18.231 51.1241 18.185ZM51.6511 21.261C50.5031 21.449 48.8561 21.747 47.8251 22.404C47.7901 22.427 47.7251 22.474 47.6611 22.521C47.9011 22.58 48.2291 22.562 48.4701 22.539C49.4891 22.438 50.7611 22.005 51.6511 21.261Z" fill="#FF4040"/>
<path d="M59.5151 19.843C59.3571 20.001 59.2041 20.165 59.0521 20.323C58.9061 20.475 58.7531 20.628 58.5951 20.768C58.4601 20.891 58.3201 21.014 58.1671 21.12C57.9271 21.278 57.5931 21.442 57.2941 21.313C57.0891 21.225 56.9601 21.026 56.9191 20.792C56.8841 20.599 56.9131 20.394 56.9661 20.218C57.0891 19.796 57.3531 19.439 57.6631 19.187C58.0501 18.871 58.6241 18.683 59.1281 18.818C59.2281 18.847 59.3101 18.935 59.3451 19.041C59.4041 18.982 59.4621 18.924 59.5211 18.865C59.6441 18.748 59.7961 18.607 59.9961 18.666C60.2361 18.742 60.2891 18.947 60.2771 19.141C59.9081 22.704 62.4801 20.495 63.5521 19.575C63.7511 19.405 64.0321 19.37 64.0911 19.692C64.1441 19.973 63.9211 20.149 63.6691 20.36C62.8371 21.069 59.9371 23.131 59.5441 20.296C59.5211 20.147 59.5091 19.995 59.5151 19.843ZM58.9521 19.456C58.6471 19.415 58.2961 19.556 58.0731 19.731C57.8331 19.913 57.6281 20.182 57.5341 20.499C57.5221 20.546 57.5051 20.616 57.4991 20.681C57.6041 20.658 57.7631 20.564 57.8211 20.523C57.9561 20.435 58.0791 20.33 58.1961 20.218C58.3421 20.083 58.4891 19.943 58.6301 19.796C58.7351 19.685 58.8471 19.573 58.9521 19.456Z" fill="#FF4040"/>
<path d="M55.7351 28.181C55.7351 27.519 56.1631 26.687 57.2061 25.808C58.3081 24.876 60.1061 23.898 62.8131 23.001C63.1181 21.946 63.2931 20.868 63.4931 19.767C63.5161 19.626 63.6571 19.544 63.7981 19.544C63.9211 19.544 64.0441 19.603 64.1141 19.726C64.1431 19.785 64.1611 19.843 64.1611 19.902L64.1551 19.966C63.9851 20.909 63.7801 21.841 63.5341 22.755C64.7471 22.292 66.5221 21.032 67.8521 19.831C67.8931 19.714 67.9811 19.667 68.0751 19.667C68.2451 19.667 68.4381 19.825 68.4381 20.03C68.4381 20.071 68.4261 20.106 68.4151 20.147C66.0651 22.585 63.3061 23.563 63.3061 23.563C62.0051 28.075 59.4041 29.686 57.6171 29.686C56.5211 29.687 55.7351 29.089 55.7351 28.181ZM62.5621 23.815C58.0031 25.409 56.4451 27.137 56.4451 28.157C56.4451 28.708 56.9021 29.053 57.5881 29.053C58.9581 29.054 61.2431 27.671 62.5621 23.815ZM63.9331 19.269C63.8511 19.246 63.7871 19.181 63.7401 19.099C63.7051 19.04 63.6931 18.976 63.6931 18.917C63.6931 18.888 63.6931 18.864 63.6991 18.841L63.7341 18.653C63.7571 18.512 63.8691 18.419 63.9981 18.419C64.0571 18.419 64.0741 18.431 64.1441 18.454C64.2201 18.483 64.2901 18.542 64.3371 18.624C64.3721 18.683 64.3841 18.747 64.3841 18.812C64.3841 18.835 64.3841 18.865 64.3781 18.888L64.3491 19.07C64.3201 19.216 64.2081 19.304 64.0851 19.304C64.0211 19.304 64.0031 19.292 63.9331 19.269Z" fill="#FF4040"/>
<path d="M70.1731 19.843C70.0151 20.001 69.8621 20.165 69.7101 20.323C69.5641 20.475 69.4111 20.628 69.2531 20.768C69.1181 20.891 68.9781 21.014 68.8251 21.12C68.5851 21.278 68.2511 21.442 67.9521 21.313C67.7471 21.225 67.6181 21.026 67.5771 20.792C67.5421 20.599 67.5711 20.394 67.6241 20.218C67.7471 19.796 68.0111 19.439 68.3211 19.187C68.7081 18.871 69.2821 18.683 69.7861 18.818C69.8861 18.847 69.9681 18.935 70.0031 19.041C70.0621 18.982 70.1201 18.924 70.1791 18.865C70.3021 18.748 70.4541 18.607 70.6541 18.666C70.8941 18.742 70.9471 18.947 70.9351 19.141C70.5661 22.704 73.1381 20.495 74.2101 19.575C74.4091 19.405 74.6901 19.37 74.7491 19.692C74.8021 19.973 74.5791 20.149 74.3271 20.36C73.4951 21.069 70.5951 23.131 70.2021 20.296C70.1791 20.147 70.1671 19.995 70.1731 19.843ZM69.6101 19.456C69.3051 19.415 68.9541 19.556 68.7311 19.731C68.4911 19.913 68.2861 20.182 68.1921 20.499C68.1801 20.546 68.1631 20.616 68.1571 20.681C68.2621 20.658 68.4211 20.564 68.4791 20.523C68.6141 20.435 68.7371 20.33 68.8541 20.218C69.0001 20.083 69.1471 19.943 69.2881 19.796C69.3941 19.685 69.5051 19.573 69.6101 19.456Z" fill="#FF4040"/>
<path d="M66.394 28.181C66.394 27.519 66.822 26.687 67.865 25.808C68.967 24.876 70.765 23.898 73.472 23.001C73.777 21.946 73.952 20.868 74.152 19.767C74.175 19.626 74.316 19.544 74.457 19.544C74.58 19.544 74.703 19.603 74.773 19.726C74.802 19.785 74.82 19.843 74.82 19.902L74.814 19.966C74.644 20.909 74.439 21.841 74.193 22.755C75.406 22.292 77.181 21.032 78.511 19.831C78.552 19.714 78.64 19.667 78.734 19.667C78.904 19.667 79.097 19.825 79.097 20.03C79.097 20.071 79.085 20.106 79.074 20.147C76.724 22.585 73.965 23.563 73.965 23.563C72.664 28.075 70.063 29.686 68.276 29.686C67.179 29.687 66.394 29.089 66.394 28.181ZM73.22 23.815C68.661 25.409 67.103 27.137 67.103 28.157C67.103 28.708 67.56 29.053 68.246 29.053C69.616 29.054 71.901 27.671 73.22 23.815ZM74.591 19.269C74.509 19.246 74.445 19.181 74.398 19.099C74.363 19.04 74.351 18.976 74.351 18.917C74.351 18.888 74.351 18.864 74.357 18.841L74.392 18.653C74.415 18.512 74.527 18.419 74.656 18.419C74.715 18.419 74.732 18.431 74.802 18.454C74.878 18.483 74.948 18.542 74.995 18.624C75.03 18.683 75.042 18.747 75.042 18.812C75.042 18.835 75.042 18.865 75.036 18.888L75.007 19.07C74.978 19.216 74.866 19.304 74.743 19.304C74.679 19.304 74.661 19.292 74.591 19.269Z" fill="#FF4040"/>
</svg>
